<?xml version="1.0" encoding="UTF-8"?>
<svg id="Layer_1" data-name="Layer 1" xmlns="http://www.w3.org/2000/svg" viewBox="0 0 173.97 21.72">
  <defs>
    <style>
      .cls-1 {
        fill: #fff;
        stroke-width: 0px;
      }
    </style>
  </defs>
  <path class="cls-1" d="M0,.84h2.23l5.52,13.85h.07L13.27.84h2.14l-6.53,15.79h-2.38L0,.84Z"/>
  <path class="cls-1" d="M17.66.84h2.06v2.42h-2.06V.84ZM17.74,4.78h1.92v11.86h-1.92V4.78Z"/>
  <path class="cls-1" d="M23.25,0h1.92v11.4h.02l7.44-6.63h2.69l-6,5.16,6.34,6.7h-2.74l-5.04-5.47-2.71,2.35v3.12h-1.92V0Z"/>
  <path class="cls-1" d="M38.23,12.29v-5.83h-1.97v-1.68h1.58c.38,0,.53-.19.58-.82l.1-1.87h1.63v2.69h4.3v1.68h-4.3v5.71c0,1.8.58,2.88,2.35,2.88.82,0,1.58-.14,1.85-.24v1.63c-.36.14-1.06.29-2.02.29-2.88,0-4.1-1.82-4.1-4.44Z"/>
  <path class="cls-1" d="M46.13,10.73c0-3.74,2.33-6.15,6-6.15s6,2.4,6,6.15-2.33,6.1-6,6.1-6-2.38-6-6.1ZM56.21,10.73c0-2.69-1.58-4.42-4.08-4.42s-4.08,1.73-4.08,4.42,1.58,4.37,4.08,4.37,4.08-1.7,4.08-4.37ZM53.11.19h2.14l-2.57,3.36h-1.61l2.04-3.36Z"/>
  <path class="cls-1" d="M61.01,4.78h1.92l-.05,3.43h.02c.55-2.06,1.78-3.62,4.32-3.62s4.08,1.78,4.08,4.63c0,.82-.07,1.68-.12,2.11h-1.75c.05-.36.1-.96.1-1.7,0-2.18-.82-3.31-2.76-3.31-2.42,0-3.84,2.11-3.84,5.06v5.26h-1.92V4.78Z"/>
  <path class="cls-1" d="M74.23.84h2.06v2.42h-2.06V.84ZM74.3,4.78h1.92v11.86h-1.92V4.78Z"/>
  <path class="cls-1" d="M79.22,13.23c0-1.68,1.18-3.12,4.34-3.12h4.82v-.86c0-2.04-1.2-3.02-3.62-3.02-2.18,0-3.38.82-3.38,2.42,0,.07,0,.24.02.43h-1.78c-.02-.17-.05-.5-.05-.72,0-2.35,2.02-3.77,5.23-3.77,3.48,0,5.5,1.73,5.5,4.82v7.23h-1.92c.02-.55.07-1.66.1-2.81h-.02c-.41,1.82-1.9,3-4.85,3-2.69,0-4.39-1.37-4.39-3.6ZM88.39,11.67v-.17h-4.66c-1.94,0-2.71.58-2.71,1.73s1.1,1.97,2.98,1.97c2.69,0,4.39-1.37,4.39-3.53Z"/>
  <path class="cls-1" d="M109.85,12.79h-8.18l-1.56,3.84h-2.11l6.67-15.79h2.4l6.67,15.79h-2.35l-1.54-3.84ZM109.25,11.31l-3.43-8.62h-.05l-3.5,8.62h6.99Z"/>
  <path class="cls-1" d="M116.01,4.78h1.92l-.05,3.19h.02c.65-2.06,2.3-3.38,5.14-3.38,3.12,0,4.97,1.8,4.97,4.63v7.42h-1.92v-7.01c0-2.02-1.15-3.31-3.7-3.31-2.71,0-4.46,1.66-4.46,4.49v5.83h-1.92V4.78Z"/>
  <path class="cls-1" d="M142.99,17.86c0,2.35-2.23,3.87-5.98,3.87s-6.24-1.27-6.24-3.53c0-1.18.94-2.16,2.42-2.16v-.02c-.6-.46-.96-1.15-.96-1.97,0-.89.38-1.58.84-1.85v-.05c-1.1-.72-1.73-1.9-1.73-3.34,0-2.57,1.97-4.22,5.04-4.22,1.3,0,2.4.29,3.24.82v-.02c-.26-.34-.46-.79-.46-1.32,0-.96.84-1.58,2.18-1.58.5,0,.86.07,1.08.14v1.54c-.17-.07-.46-.14-.84-.14-.79,0-1.22.36-1.22,1.06,0,.36.12.82.31,1.3.5.67.77,1.49.77,2.45,0,2.57-1.97,4.22-5.06,4.22-.82,0-1.54-.12-2.18-.34-.19.19-.34.55-.34,1.01,0,.79.5,1.3,1.51,1.3h3.84c2.4,0,3.77,1.06,3.77,2.86ZM141.07,18.05c0-.94-.7-1.42-2.14-1.42h-3.53c-1.66,0-2.71.43-2.71,1.51,0,1.32,1.68,1.94,4.3,1.94,3.05,0,4.08-.91,4.08-2.04ZM133.22,8.81c0,1.58,1.22,2.59,3.17,2.59s3.19-1.01,3.19-2.59-1.25-2.59-3.19-2.59-3.17,1.01-3.17,2.59Z"/>
  <path class="cls-1" d="M145.51,21.31v-1.61c.29.1.86.24,1.46.24,1.3,0,1.87-.62,2.98-3.31h-.5l-5.33-11.86h2.26l4.32,9.91h.05l3.82-9.91h1.94l-4.7,12.07c-1.42,3.67-2.33,4.78-4.58,4.78-.67,0-1.37-.17-1.7-.31Z"/>
  <path class="cls-1" d="M157.61,13.23c0-1.68,1.18-3.12,4.34-3.12h4.82v-.86c0-2.04-1.2-3.02-3.62-3.02-2.18,0-3.38.82-3.38,2.42,0,.07,0,.24.02.43h-1.78c-.02-.17-.05-.5-.05-.72,0-2.35,2.02-3.77,5.23-3.77,3.48,0,5.5,1.73,5.5,4.82v7.23h-1.92c.02-.55.07-1.66.1-2.81h-.02c-.41,1.82-1.9,3-4.85,3-2.69,0-4.39-1.37-4.39-3.6ZM166.77,11.67v-.17h-4.66c-1.94,0-2.71.58-2.71,1.73s1.1,1.97,2.98,1.97c2.69,0,4.39-1.37,4.39-3.53Z"/>
  <path class="cls-1" d="M172.05,0h1.92v16.63h-1.92V0Z"/>
</svg>